<svg id="Layer_1" data-name="Layer 1" xmlns="http://www.w3.org/2000/svg" viewBox="0 0 200 200"><title>hand-pawn</title><ellipse cx="74" cy="178" rx="47" ry="7"/><circle cx="74.98" cy="100.12" r="20.46" style="fill:#ebe8cd"/><path d="M75,177.72H39.73s-4.85-1.12-4.23-8.46c.7-8.47,5.64-15.52,16.22-21.87C57.3,144,63,136.1,63,129H53.84L51,123.4v-4.23l8.69-5.83H75Z" style="fill:#ebe8cd"/><path d="M75,177.72h35.28s4.84-1.12,4.23-8.46c-.7-8.47-5.64-15.52-16.23-21.87C92.66,144,87,136.1,87,129h9.17l2.82-5.64v-4.23l-8.69-5.83H75Z" style="fill:#ebe8cd"/><path d="M36.54,92.36s-2.82,9.87,2.82,10.58,9.18.71,11.29-.71,9.88-15.52,13.41-20.46C71.82,78.25,85.22,74,85.22,74h25.4s7.76,4.94,10.58,9.18S130.37,95.88,138.14,98s11.28,4.23,14.81,3.53,13.41-6.35,13.41-6.35,5.64,0,5.64-13.41-.71-26.1-.71-26.1-2.11-5.64-10.58-7.05-36-6.35-48-5.65S86.63,47.2,80.28,50,55.59,62,52.06,65.55a45.42,45.42,0,0,0-9.87,14.81A106.22,106.22,0,0,1,36.54,92.36Z" style="fill:#e4c099"/><path d="M100.74,102.23s-7,4.94-7.76,7.77-2.82,6.34.71,9.87,6.35,6.35,16.22,2.12S141,107.88,146.6,105.06s7.76-3.53,14.11-6.35,7.76-15.52,2.82-19S140.25,62,131.79,72.6,122.61,87.42,118.38,91,100.74,102.23,100.74,102.23Z" style="fill:#e4c099"/></svg>