<svg id="Layer_1" data-name="Layer 1" xmlns="http://www.w3.org/2000/svg" viewBox="0 0 41.59 41.59"><title>head-outline</title><circle cx="20.79" cy="20.79" r="19.17" style="fill:#444"/><path d="M20.79,3.13A17.67,17.67,0,1,1,3.13,20.79,17.67,17.67,0,0,1,20.79,3.13m0-3A20.67,20.67,0,1,0,41.46,20.79,20.69,20.69,0,0,0,20.79.13Z" style="fill:#444"/><circle cx="20.79" cy="20.79" r="19.17" style="fill:#444"/><path d="M20.79,3.13A17.67,17.67,0,1,1,3.13,20.79,17.67,17.67,0,0,1,20.79,3.13m0-3A20.67,20.67,0,1,0,41.46,20.79,20.69,20.69,0,0,0,20.79.13Z" style="fill:#444"/></svg>