<svg id="Layer_1" data-name="Layer 1" xmlns="http://www.w3.org/2000/svg" viewBox="0 0 55 25"><title>neck-outline</title><path d="M9.24,21a2.91,2.91,0,0,1-2.72-1.91L5.2,15.42a2.88,2.88,0,0,1,1-3.27l9.75-7.49A3.19,3.19,0,0,1,17.83,4h18.4A3.1,3.1,0,0,1,38,4.58l10.71,7.54a2.89,2.89,0,0,1,1,3.34l-1.31,3.63A2.9,2.9,0,0,1,45.77,21Z" style="fill:#444"/><path d="M36.23,5.5a1.64,1.64,0,0,1,.94.3l10.71,7.55a1.39,1.39,0,0,1,.51,1.6l-1.31,3.63a1.39,1.39,0,0,1-1.31.92H9.24a1.38,1.38,0,0,1-1.3-.92L6.61,14.91a1.39,1.39,0,0,1,.46-1.57l9.75-7.49a1.61,1.61,0,0,1,1-.35h18.4m0-3H17.83a4.66,4.66,0,0,0-2.83,1L5.24,11a4.38,4.38,0,0,0-1.45,5L5.11,19.6a4.42,4.42,0,0,0,4.13,2.9H45.77a4.4,4.4,0,0,0,4.13-2.9L51.21,16a4.41,4.41,0,0,0-1.6-5.08L38.9,3.35a4.63,4.63,0,0,0-2.67-.85Z" style="fill:#444"/></svg>