<svg xmlns="http://www.w3.org/2000/svg" viewBox="0 0 108 108"><title>1</title><g id="Layer_1" data-name="Layer 1"><path d="M16.46,103.63l-.24-1.73c0-.15-2-15.36,11.66-22.9,8.68-4.8,12.19-14.91,13.51-20.51,0-.21.38-2.06.67-4.22H35.73A3.39,3.39,0,0,1,32.55,52l-1.33-3.67a3.4,3.4,0,0,1,1.12-3.84l8.12-6.23A19.65,19.65,0,0,1,54,4.38a19.46,19.46,0,0,1,14.29,6.18,19.11,19.11,0,0,1,2.24,2.85l.06.09c.28.44.59,1,.85,1.47l.07.14c.27.53.5,1,.7,1.51l.09.26c.21.53.38,1,.53,1.48,0,.14.08.28.11.43l.08.3c.09.36.19.72.26,1.09s.09.49.12.74l.07.49c0,.22.08.44.1.67.06.65.1,1.31.1,2A19.64,19.64,0,0,1,67.2,38.62l8.33,5.86a3.41,3.41,0,0,1,1.23,3.93L75.45,52a3.39,3.39,0,0,1-3.18,2.24H65.86c.11.85.26,1.9.51,3.11a43.91,43.91,0,0,0,3,9.25c1.56,3.29,8.66,10.1,12.28,13.31,11.92,7.78,10.19,21.38,10.11,22l-.24,1.73Z" style="fill:#f8f8f8"/><path d="M54,6.37a17.62,17.62,0,0,1,12.84,5.56h0a18.42,18.42,0,0,1,2,2.56v0c.29.45.56.91.81,1.39l.06.11c.22.45.44.9.63,1.37a2.47,2.47,0,0,1,.1.29c.16.41.32.84.45,1.27,0,.17.09.35.14.53.1.36.2.73.27,1.1s.09.59.14.88.09.55.12.83A17.14,17.14,0,0,1,71.67,24a17.64,17.64,0,0,1-7.82,14.67l10.52,7.41a1.39,1.39,0,0,1,.51,1.61l-1.31,3.62a1.39,1.39,0,0,1-1.3.92H63.68a38.15,38.15,0,0,0,.72,5.5,45,45,0,0,0,3.18,9.69c2.22,4.71,12.88,14.08,12.88,14.08,11.13,7.16,9.34,20.09,9.34,20.09H18.2S16.27,87.71,28.85,80.75C37.61,75.9,41.67,66,43.33,59c0,0,.68-3.49,1-6.68H35.73a1.39,1.39,0,0,1-1.3-.92L33.1,47.68a1.39,1.39,0,0,1,.46-1.57l10.1-7.76A17.66,17.66,0,0,1,54,6.37m0-4A21.65,21.65,0,0,0,37.49,38.05l-6.36,4.89A5.36,5.36,0,0,0,29.34,49l1.33,3.67a5.39,5.39,0,0,0,5.06,3.56h4c-.15.93-.28,1.63-.32,1.85-1.26,5.29-4.55,14.73-12.51,19.13C12.1,85.44,14.15,101.5,14.24,102.18l.48,3.45H93.28l.48-3.46c.08-.62,2-15.34-10.87-23.82-5-4.41-10.52-10.11-11.7-12.6A42,42,0,0,1,68.32,57c0-.24-.09-.47-.13-.69h4.08a5.39,5.39,0,0,0,5.06-3.56l1.31-3.63a5.38,5.38,0,0,0-2-6.23l-6.4-4.51A21.62,21.62,0,0,0,75.67,24c0-.71,0-1.44-.11-2.16,0-.27-.07-.54-.11-.8l0-.21,0-.23c0-.28-.08-.57-.14-.85-.09-.46-.2-.86-.29-1.22l0-.14,0-.12c0-.18-.09-.36-.14-.53-.17-.57-.37-1.11-.55-1.56,0-.12-.08-.24-.13-.36-.21-.51-.46-1-.75-1.62a1.86,1.86,0,0,0-.1-.2c-.28-.53-.59-1.08-.94-1.63h0l-.06-.09a21.89,21.89,0,0,0-2.45-3.13A21.48,21.48,0,0,0,54,2.37Z" style="fill:#464646"/><circle cx="54" cy="24.04" r="17.67" style="fill:#f8f8f8"/><path d="M66.84,11.93a23,23,0,0,1,1.42,8c0,10.07-7.45,17.29-19.84,20,.41,0,5.17,1.81,5.58,1.81A17.65,17.65,0,0,0,66.84,11.93Z" style="fill:#d3d3d3"/><path d="M79.15,80.75c-12.57-7-15.48-24.35-15.48-28.7H44.33c0,4.35-2.91,21.74-15.48,28.7S18.2,101.63,18.2,101.63H89.8S91.73,87.71,79.15,80.75Z" style="fill:#f8f8f8"/><path d="M72.27,52.27H35.73a1.39,1.39,0,0,1-1.3-.92L33.1,47.68a1.39,1.39,0,0,1,.46-1.57l10.2-7.83H63.24l11.13,7.84a1.39,1.39,0,0,1,.51,1.61l-1.31,3.62A1.39,1.39,0,0,1,72.27,52.27Z" style="fill:#f8f8f8"/><path d="M44.33,52.05H63.67s.41,20.47,16.8,29.49C65.89,78.64,43.33,59,43.33,59S44,55.31,44.33,52.05Z" style="fill:#d3d3d3"/><path d="M63.24,38.28a13.49,13.49,0,0,1,2,7.81c-.15,2.86-4.12,6.18-4.12,6.18H72.27a1.39,1.39,0,0,0,1.3-.92l1.31-3.62a1.39,1.39,0,0,0-.51-1.61Z" style="fill:#d3d3d3"/></g></svg>