<svg xmlns="http://www.w3.org/2000/svg" viewBox="0 0 108 108"><title>2</title><g id="Layer_1" data-name="Layer 1"><path d="M54,102.25c-18.84,0-37.9-4-37.9-11.75a4.19,4.19,0,0,1,0-.5A21.58,21.58,0,0,1,27.92,69.27C36.16,65,39.73,56,41.15,50.85,34.68,48.92,31,45.73,31,42a2.34,2.34,0,0,1,0-.38,2.66,2.66,0,0,1,0-.39c0-2.78,1.84-5.35,5.22-7.36A19.65,19.65,0,0,1,63.61,8.27l.08,0,.09.07a18,18,0,0,1,1.81,1.18l.43.32c.26.21.52.41.78.63l.28.26.11.1c.4.36.79.74,1.16,1.14.17.17.33.35.48.53s.37.43.55.65.47.61.7.93.33.48.49.73l.52.86.33.59c.24.46.46.92.66,1.39l.15.37c.16.41.32.82.45,1.25.06.16.11.33.16.5.18.61.32,1.12.42,1.63l0,.16c.1.52.18,1.05.24,1.58l0,.46c.06.68.09,1.24.09,1.79a19.44,19.44,0,0,1-1.55,7.65c-.05.13-.11.26-.17.39,3.8,2,5.86,4.75,5.86,7.72a2.56,2.56,0,0,1,0,.39,2.43,2.43,0,0,1,0,.38c0,3.9-4,7.24-10.9,9.13,1.45,5.09,5,13.92,13.17,18.19A21.58,21.58,0,0,1,91.87,90a4.19,4.19,0,0,1,0,.5C91.9,98.21,72.84,102.25,54,102.25Z" style="fill:#f8f8f8"/><path d="M54,7.75a17.58,17.58,0,0,1,8.71,2.31h0a17.4,17.4,0,0,1,1.69,1.09l.38.29c.24.19.48.37.7.57l.36.32c.36.33.71.67,1,1l.43.48c.17.19.34.39.5.59s.42.55.62.83l.44.66q.25.39.48.78l.29.53c.21.4.41.82.6,1.24l.12.33c.15.37.29.74.41,1.12l.15.45c.14.48.27,1,.37,1.46l0,.14c.09.47.16,1,.21,1.43,0,.14,0,.27,0,.41,0,.53.08,1.07.08,1.61h0a17.72,17.72,0,0,1-1.39,6.88c-.22.52-.47,1-.74,1.54-.1.18-.22.35-.32.52,4,1.72,6.59,4.14,6.59,6.82a2.57,2.57,0,0,1,0,.4,2.2,2.2,0,0,1,0,.37c0,3.32-4.59,6.2-11.33,7.67C66,56.31,70,66.26,79.15,71a19.7,19.7,0,0,1,10.71,19,2.15,2.15,0,0,1,0,.43c0,5.38-16.07,9.75-35.9,9.75S18.1,95.88,18.1,90.5a2.15,2.15,0,0,1,0-.43A19.7,19.7,0,0,1,28.85,71c9.2-4.82,13.22-14.92,14.71-21.61C37.26,47.92,33,45.14,33,42c0-.13,0-.25.05-.37s-.05-.26-.05-.4c0-2.53,2.27-4.83,6-6.53A17.63,17.63,0,0,1,54,7.75m0-4A21.69,21.69,0,0,0,32.33,25.42a21.47,21.47,0,0,0,1.41,7.65C29.71,36,29,39.27,29,41.18c0,.14,0,.27,0,.39s0,.24,0,.38c0,4.3,3.47,7.91,9.66,10.19C37.06,57,33.69,64,27,67.49A23.56,23.56,0,0,0,14.12,90c0,.16,0,.35,0,.55,0,4.71,4.53,8.33,13.46,10.75,7.12,1.94,16.51,3,26.44,3s19.32-1.06,26.44-3c8.93-2.42,13.46-6,13.46-10.75,0-.2,0-.39,0-.55A23.56,23.56,0,0,0,81,67.49c-6.58-3.44-10-10.24-11.59-15.08,6.66-2.25,10.39-6,10.39-10.46,0-.14,0-.27,0-.39s0-.24,0-.38c0-2-.78-5.53-5.37-8.57a21.35,21.35,0,0,0,1.23-7.19c0-.61,0-1.23-.1-2,0-.17,0-.33,0-.5-.07-.61-.16-1.17-.26-1.7a1.85,1.85,0,0,0,0-.23c-.12-.56-.27-1.14-.46-1.79-.05-.19-.11-.37-.17-.55-.16-.48-.33-.94-.51-1.39l0,0a3.65,3.65,0,0,0-.14-.35,16,16,0,0,0-.73-1.53l-.36-.65c-.18-.33-.38-.64-.58-1s-.35-.54-.54-.8-.51-.71-.77-1-.39-.48-.6-.72-.35-.39-.53-.58c-.39-.42-.82-.85-1.28-1.26l-.09-.08c-.11-.11-.23-.21-.35-.31-.27-.24-.56-.47-.85-.69l-.47-.36a21.48,21.48,0,0,0-2-1.29h0l-.08,0A21.68,21.68,0,0,0,54,3.75Z" style="fill:#464646"/><circle cx="54" cy="25.42" r="17.67" style="fill:#f8f8f8"/><path d="M62.71,10.06A17.65,17.65,0,0,1,40.9,37.24,17.65,17.65,0,1,0,62.71,10.06Z" style="fill:#d3d3d3"/><ellipse cx="54.41" cy="41.95" rx="21.4" ry="8.7" style="fill:#d3d3d3"/><ellipse cx="54.41" cy="41.18" rx="21.4" ry="9.46" style="fill:#f8f8f8"/><ellipse cx="54.41" cy="42.53" rx="17.16" ry="6.02" style="fill:#d3d3d3"/><path d="M79.15,71C66.58,64.45,63.67,48,63.67,43.88a21.18,21.18,0,0,0-10-2.68c-6.35,0-9.31,2.68-9.31,2.68C44.33,48,41.42,64.45,28.85,71S18.2,90.79,18.2,90.79H89.8S91.73,77.62,79.15,71Z" style="fill:#f8f8f8"/><ellipse cx="54" cy="90.5" rx="35.9" ry="9.75" style="fill:#f8f8f8"/><ellipse cx="54" cy="90.5" rx="30.21" ry="7.36" style="fill:#d3d3d3"/></g></svg>