<svg xmlns="http://www.w3.org/2000/svg" viewBox="0 0 108 108"><title>3</title><g id="Layer_1" data-name="Layer 1"><path d="M54,102.79c-18.86,0-34.47-8.25-37.4-19.46h-.09l-.28-1.7a13.65,13.65,0,0,1-.13-2v-.19A20.42,20.42,0,0,1,28,60.79a24.89,24.89,0,0,0,10.86-11.4c-5.18-3-8.22-7.44-8.22-12.15a12.64,12.64,0,0,1,4-9,18.62,18.62,0,0,1-.31-3.37A19.66,19.66,0,0,1,63.65,7.75l.07,0,.05,0A20.15,20.15,0,0,1,65.59,9l.42.31.79.64.29.26.1.1c.4.36.79.74,1.16,1.13l.48.53c.19.22.38.44.55.66s.47.61.69.92.34.49.5.74.35.57.52.87.23.39.33.59q.36.68.66,1.38l.15.37c.16.41.32.82.45,1.24.06.17.11.34.16.51.18.59.32,1.12.42,1.62l0,.17c.1.52.18,1,.24,1.58,0,.15,0,.31,0,.46.06.67.09,1.24.09,1.79a18.54,18.54,0,0,1-.31,3.37,12.64,12.64,0,0,1,4,9c0,4.71-3,9.15-8.22,12.15A24.89,24.89,0,0,0,80,60.79,20.44,20.44,0,0,1,91.9,79.51v.14a12.36,12.36,0,0,1-.13,2l-.25,1.7H91.4C88.47,94.54,72.86,102.79,54,102.79Z" style="fill:#f8f8f8"/><path d="M54,7.21a17.48,17.48,0,0,1,8.71,2.31h0a19.6,19.6,0,0,1,1.69,1.1l.38.29c.24.18.48.37.7.56l.36.33a14.28,14.28,0,0,1,1,1l.43.48c.17.19.34.38.5.58s.42.55.62.84.3.44.44.66.33.51.48.78.19.35.29.53c.21.4.41.81.6,1.24l.12.33c.15.36.29.74.41,1.12l.15.45c.14.48.27,1,.37,1.46l0,.14c.09.47.16.95.21,1.43,0,.13,0,.27,0,.41,0,.53.08,1.06.08,1.61A17.64,17.64,0,0,1,71.18,29c2.64,2.32,4.22,5.18,4.22,8.29,0,4.64-3.49,8.73-8.83,11.27,2.28,5.26,6.17,10.89,12.58,14.07A18.4,18.4,0,0,1,89.9,79.51v.07a12.92,12.92,0,0,1-.1,1.75h0c-1.54,10.9-17,19.46-35.77,19.46S19.77,92.23,18.23,81.33h0a12.92,12.92,0,0,1-.1-1.75v-.07A18.4,18.4,0,0,1,28.85,62.58c6.41-3.18,10.3-8.81,12.58-14.07C36.09,46,32.6,41.88,32.6,37.24c0-3.11,1.58-6,4.22-8.29A17.61,17.61,0,0,1,54,7.21m0-4A21.69,21.69,0,0,0,32.33,24.88a21.05,21.05,0,0,0,.18,2.72,14.55,14.55,0,0,0-3.91,9.64c0,4.91,2.77,9.52,7.57,12.84A22.11,22.11,0,0,1,27.07,59a22.34,22.34,0,0,0-13,20.38v.33a16.77,16.77,0,0,0,.15,2.22l.52,3.4h.36C19.22,96.64,35.07,104.79,54,104.79s34.78-8.15,38.87-19.46h.34l.54-3.4a16.9,16.9,0,0,0,.15-2.21v-.29A22.35,22.35,0,0,0,80.93,59a22.11,22.11,0,0,1-9.1-8.92c4.8-3.32,7.57-7.93,7.57-12.84a14.55,14.55,0,0,0-3.91-9.64,21.05,21.05,0,0,0,.18-2.72c0-.61,0-1.24-.1-2,0-.17,0-.34,0-.5-.07-.62-.16-1.17-.26-1.7,0-.08,0-.16,0-.23-.12-.56-.27-1.14-.46-1.79-.05-.19-.11-.37-.17-.56q-.24-.7-.51-1.38l0,0c0-.12-.09-.24-.14-.36-.2-.48-.44-1-.73-1.53l-.36-.64c-.18-.33-.38-.64-.58-1s-.35-.54-.54-.81-.52-.71-.77-1-.39-.48-.6-.72-.35-.39-.53-.58a17,17,0,0,0-1.28-1.26l-.09-.08-.34-.31c-.28-.24-.57-.47-.86-.69l-.47-.36a21.48,21.48,0,0,0-2-1.29h0l-.09,0A21.71,21.71,0,0,0,54,3.21Z" style="fill:#464646"/><circle cx="54" cy="24.88" r="17.67" style="fill:#f8f8f8"/><path d="M62.71,9.52A17.65,17.65,0,0,1,40.9,36.7,17.65,17.65,0,1,0,62.71,9.52Z" style="fill:#d3d3d3"/><ellipse cx="54" cy="37.24" rx="21.4" ry="13.95" style="fill:#f8f8f8"/><ellipse cx="54" cy="37.24" rx="15.5" ry="10.1" style="fill:#d3d3d3"/><path d="M79.15,62.58C66.58,56.33,63.67,40.71,63.67,36.81c0,0-2.24-4.5-9.84-4.5-8,0-9.5,4.5-9.5,4.5,0,3.9-2.91,19.52-15.48,25.77A18.5,18.5,0,0,0,18.2,81.33H89.8A18.5,18.5,0,0,0,79.15,62.58Z" style="fill:#f8f8f8"/><ellipse cx="54" cy="79.54" rx="35.9" ry="21.25" style="fill:#f8f8f8"/><ellipse cx="54" cy="79.54" rx="30.79" ry="18.22" style="fill:#d3d3d3"/></g></svg>