<svg xmlns="http://www.w3.org/2000/svg" viewBox="0 0 108 108"><title>5</title><g id="Layer_1" data-name="Layer 1"><path d="M54,102.79a19.68,19.68,0,0,1-9.7-2.57l-.12-.06c-.58-.35-1.17-.73-1.77-1.17L42,98.67q-.39-.3-.78-.63l-.29-.26-.1-.1c-.42-.38-.8-.75-1.16-1.14-.16-.16-.32-.34-.48-.52l-.56-.66c-.23-.3-.46-.61-.68-.92s-.34-.49-.5-.74-.36-.57-.52-.87l-.33-.58c-.24-.46-.46-.92-.66-1.39l-.14-.35c-.17-.42-.33-.84-.46-1.26-.06-.17-.11-.34-.16-.51-.18-.61-.32-1.12-.42-1.62l0-.18c-.1-.51-.18-1-.24-1.57,0-.15,0-.31,0-.46-.06-.67-.09-1.24-.09-1.79a18.62,18.62,0,0,1,.31-3.37,12.64,12.64,0,0,1-4-9c0-4.71,3-9.15,8.22-12.15A24.89,24.89,0,0,0,28,47.21,20.41,20.41,0,0,1,16.1,28.58v-.24a13.36,13.36,0,0,1,.13-2l.25-1.7h.12C19.53,13.46,35.14,5.21,54,5.21s34.48,8.25,37.4,19.46h.09l.28,1.7a13.36,13.36,0,0,1,.13,2v.23A20.41,20.41,0,0,1,80,47.21a24.89,24.89,0,0,0-10.86,11.4c5.18,3,8.22,7.44,8.22,12.15a12.64,12.64,0,0,1-4,9,18.62,18.62,0,0,1,.31,3.37A19.69,19.69,0,0,1,54,102.79Z" style="fill:#f8f8f8"/><path d="M54,7.21c18.81,0,34.23,8.56,35.77,19.46h0a12.92,12.92,0,0,1,.1,1.75v.07A18.4,18.4,0,0,1,79.15,45.42c-6.41,3.18-10.3,8.81-12.58,14.07C71.91,62,75.4,66.12,75.4,70.76c0,3.11-1.58,6-4.22,8.29A17.64,17.64,0,0,1,45.29,98.48h0a19.6,19.6,0,0,1-1.69-1.1l-.38-.29c-.24-.18-.48-.37-.7-.56l-.36-.33a14.28,14.28,0,0,1-1-1l-.43-.48c-.17-.19-.34-.38-.5-.58s-.42-.55-.62-.84-.3-.44-.44-.66-.33-.51-.48-.78-.19-.35-.29-.53c-.21-.4-.41-.81-.6-1.24l-.12-.33c-.15-.36-.29-.74-.41-1.12l-.15-.45c-.14-.48-.27-1-.37-1.46l0-.14c-.09-.47-.16-.95-.21-1.43,0-.13,0-.27-.05-.41,0-.53-.08-1.06-.08-1.61a17.64,17.64,0,0,1,.49-4.07c-2.64-2.32-4.22-5.18-4.22-8.29,0-4.64,3.49-8.73,8.83-11.27-2.28-5.26-6.17-10.89-12.58-14.07A18.4,18.4,0,0,1,18.1,28.49v-.07a12.92,12.92,0,0,1,.1-1.75h0C19.77,15.77,35.19,7.21,54,7.21m0-4c-18.93,0-34.78,8.15-38.87,19.46h-.34l-.54,3.4a16.9,16.9,0,0,0-.15,2.21v.29A22.35,22.35,0,0,0,27.07,49a22.11,22.11,0,0,1,9.1,8.92c-4.8,3.32-7.57,7.93-7.57,12.84a14.55,14.55,0,0,0,3.91,9.64,21.05,21.05,0,0,0-.18,2.72c0,.61,0,1.24.1,2,0,.17,0,.34,0,.5.07.62.16,1.17.26,1.7,0,.08,0,.16,0,.23.12.56.27,1.14.46,1.79,0,.19.11.37.17.56q.24.7.51,1.38l0,0c0,.12.09.24.14.36.2.48.44,1,.73,1.53l.36.64c.18.33.38.64.58,1s.35.54.54.81.52.71.77,1,.39.48.6.72.35.39.53.58a17,17,0,0,0,1.28,1.26l.09.08.34.31c.28.24.57.47.86.69l.47.36a21.48,21.48,0,0,0,2,1.29h0l.09,0A21.66,21.66,0,0,0,75.67,83.12a21.05,21.05,0,0,0-.18-2.72,14.55,14.55,0,0,0,3.91-9.64c0-4.91-2.77-9.52-7.57-12.84A22.11,22.11,0,0,1,80.93,49a22.34,22.34,0,0,0,13-20.38v-.33a16.77,16.77,0,0,0-.15-2.22l-.52-3.4h-.36C88.78,11.36,72.93,3.21,54,3.21Z" style="fill:#464646"/><circle cx="54" cy="83.12" r="17.67" style="fill:#f8f8f8"/><path d="M45.29,98.48A17.65,17.65,0,0,1,67.1,71.3,17.65,17.65,0,1,0,45.29,98.48Z" style="fill:#d3d3d3"/><ellipse cx="54" cy="70.76" rx="21.4" ry="13.95" style="fill:#f8f8f8"/><ellipse cx="54" cy="70.76" rx="15.5" ry="10.1" style="fill:#d3d3d3"/><path d="M28.85,45.42c12.57,6.25,15.48,21.87,15.48,25.77,0,0,2.24,4.5,9.84,4.5,8,0,9.5-4.5,9.5-4.5,0-3.9,2.91-19.52,15.48-25.77A18.5,18.5,0,0,0,89.8,26.67H18.2A18.5,18.5,0,0,0,28.85,45.42Z" style="fill:#f8f8f8"/><ellipse cx="54" cy="28.46" rx="35.9" ry="21.25" style="fill:#f8f8f8"/><ellipse cx="54" cy="28.46" rx="30.79" ry="18.22" style="fill:#d3d3d3"/></g></svg>