<svg xmlns="http://www.w3.org/2000/svg" viewBox="0 0 108 108"><title>6</title><g id="Layer_1" data-name="Layer 1"><path d="M54,103.63A19.66,19.66,0,0,1,40.46,69.71l-8.11-6.24a3.37,3.37,0,0,1-1.13-3.83L32.55,56a3.39,3.39,0,0,1,3.18-2.24h6.33c-.27-2-.59-3.8-.68-4.27-1.33-5.6-4.85-15.67-13.5-20.46C14.26,21.46,16.2,6.25,16.22,6.1l.24-1.72H91.54l.24,1.72c.08.58,1.81,14.18-10.11,22-3.62,3.21-10.72,10-12.29,13.33a43.77,43.77,0,0,0-3,9.25c-.24,1.19-.39,2.24-.5,3.09h6.41A3.39,3.39,0,0,1,75.45,56l1.31,3.62a3.41,3.41,0,0,1-1.23,3.93L67.2,69.38A19.64,19.64,0,0,1,73.67,84a18.51,18.51,0,0,1-.1,2c0,.23-.06.45-.1.67l-.07.5c0,.25-.07.49-.12.74s-.16.71-.26,1.06l-.08.33c0,.14-.07.29-.11.43-.15.47-.32.94-.5,1.41-.06.15-.09.24-.12.32-.2.48-.43,1-.71,1.52a.93.93,0,0,1-.07.15c-.25.47-.54,1-.86,1.48l-.09.14a20,20,0,0,1-2.18,2.77A19.51,19.51,0,0,1,54,103.63Z" style="fill:#f8f8f8"/><path d="M89.8,6.37s1.79,12.93-9.34,20.09c0,0-10.66,9.37-12.88,14.08a45,45,0,0,0-3.18,9.69,38.15,38.15,0,0,0-.72,5.5h8.59a1.39,1.39,0,0,1,1.3.92l1.31,3.62a1.39,1.39,0,0,1-.51,1.61L63.85,69.29A17.64,17.64,0,0,1,71.67,84a17.14,17.14,0,0,1-.09,1.76c0,.28-.08.55-.12.83s-.08.59-.14.88-.17.74-.27,1.1c0,.18-.09.36-.14.53-.13.43-.29.86-.45,1.27a2.47,2.47,0,0,1-.1.29c-.19.47-.41.92-.63,1.37l-.06.11c-.25.48-.52.94-.81,1.39v0a18.42,18.42,0,0,1-2,2.56h0A17.65,17.65,0,1,1,43.66,69.65l-10.1-7.76a1.39,1.39,0,0,1-.46-1.57l1.33-3.67a1.39,1.39,0,0,1,1.3-.92H44.3c-.29-3.19-1-6.66-1-6.68-1.66-7-5.72-16.95-14.48-21.8C16.27,20.29,18.2,6.37,18.2,6.37H89.8m3.48-4H14.72l-.48,3.45c-.09.68-2.14,16.74,12.67,24.93,8,4.4,11.25,13.84,12.51,19.13,0,.21.17.91.32,1.85h-4a5.39,5.39,0,0,0-5.06,3.56L29.34,59a5.36,5.36,0,0,0,1.79,6.1L37.49,70A21.65,21.65,0,0,0,54,105.63a21.48,21.48,0,0,0,15.75-6.81,21.73,21.73,0,0,0,2.46-3.15l.05-.06v0c.34-.54.66-1.09,1-1.64l.09-.19c.3-.59.54-1.11.75-1.63a3.62,3.62,0,0,0,.13-.35c.18-.45.38-1,.55-1.56.05-.17.1-.35.14-.53l0-.12,0-.14c.1-.36.2-.76.3-1.22,0-.28.09-.57.13-.85l0-.22,0-.22c0-.26.08-.53.11-.8.07-.72.11-1.45.11-2.16a21.62,21.62,0,0,0-5.39-14.3l6.4-4.51a5.38,5.38,0,0,0,2-6.23l-1.31-3.63a5.39,5.39,0,0,0-5.06-3.56H68.19c0-.23.09-.47.14-.72a41.7,41.7,0,0,1,2.88-8.8c1.17-2.47,6.73-8.15,11.68-12.56,12.83-8.48,11-23.2,10.87-23.82l-.48-3.46Z" style="fill:#464646"/><circle cx="54" cy="83.96" r="17.67" style="fill:#f8f8f8"/><path d="M66.84,96.07a23,23,0,0,0,1.42-8c0-10.07-7.45-17.29-19.84-20,.41,0,5.17-1.81,5.58-1.81A17.65,17.65,0,0,1,66.84,96.07Z" style="fill:#d3d3d3"/><path d="M79.15,27.25C66.58,34.21,63.67,51.6,63.67,56H44.33c0-4.35-2.91-21.74-15.48-28.7S18.2,6.37,18.2,6.37H89.8S91.73,20.29,79.15,27.25Z" style="fill:#f8f8f8"/><path d="M72.27,55.73H35.73a1.39,1.39,0,0,0-1.3.92L33.1,60.32a1.39,1.39,0,0,0,.46,1.57l10.2,7.83H63.24l11.13-7.84a1.39,1.39,0,0,0,.51-1.61l-1.31-3.62A1.39,1.39,0,0,0,72.27,55.73Z" style="fill:#f8f8f8"/><path d="M44.33,56H63.67s.41-20.47,16.8-29.49c-14.58,2.9-37.14,22.59-37.14,22.59S44,52.69,44.33,56Z" style="fill:#d3d3d3"/><path d="M63.24,69.72a13.49,13.49,0,0,0,2-7.81c-.15-2.86-4.12-6.18-4.12-6.18H72.27a1.39,1.39,0,0,1,1.3.92l1.31,3.62a1.39,1.39,0,0,1-.51,1.61Z" style="fill:#d3d3d3"/></g></svg>