<svg xmlns="http://www.w3.org/2000/svg" viewBox="0 0 108 108"><title>8</title><g id="Layer_1" data-name="Layer 1"><circle cx="54" cy="54" r="38" style="fill:#f8f8f8"/><path d="M54,18A36,36,0,1,1,18,54,36,36,0,0,1,54,18m0-4A40,40,0,1,0,94,54,40,40,0,0,0,54,14Z" style="fill:#464646"/><circle cx="54" cy="54" r="36" style="fill:#f8f8f8"/><circle cx="54" cy="54" r="23.43" style="fill:#d3d3d3"/><circle cx="54" cy="54" r="17.67" style="fill:#f8f8f8"/><path d="M62.71,38.64A17.65,17.65,0,0,1,40.9,65.82,17.65,17.65,0,1,0,62.71,38.64Z" style="fill:#d3d3d3"/></g></svg>