<svg id="Layer_1" data-name="Layer 1" xmlns="http://www.w3.org/2000/svg" viewBox="0 0 200 200"><title>hand</title><ellipse cx="101.84" cy="115.19" rx="15.96" ry="13.84" transform="translate(-31.14 38) rotate(-18.39)" style="opacity:0.2"/><path d="M37.9,91.89c-1,2.6-4.34,11.33,1.3,12s9.34-.27,11.45-1.69,8.8-12.34,13.41-20.46C71.82,78.25,85.22,74,85.22,74h25.4s7.76,4.94,10.58,9.18S125.74,91.58,133,95c7.5,3.57,18.1,4.88,23.7,3C161,96.56,172,91.58,172,81.77c0-13.4-.71-26.1-.71-26.1s-2.11-5.64-10.58-7.05-36-6.35-48-5.65S86.63,47.2,80.28,50,55.59,62,52.06,65.55a45.42,45.42,0,0,0-9.87,14.81C40.07,86,39,89,37.9,91.89Z" style="fill:#e4c099"/><path d="M171.75,66.72C169.91,72.06,167,78.91,165.54,81c-1.81,2.73-13.26,11.09-19.44,10.54S133.59,77.7,128.85,74.28c0,0-11.28-8.39-14.46-9.26s-20,1.16-29.78,1.16c-5.79,2.6-16.2,6.94-25.16,11.57-2.37,3.32-11,20.24-14,26.23a12.15,12.15,0,0,0,5.18-1.75c2.12-1.41,8.8-12.34,13.41-20.46C71.82,78.25,85.22,74,85.22,74h25.4s1.32.84,3.06,2.12l.94.71,0,0c.65.5,1.34,1,2,1.63l.14.12.81.7.32.29.61.58.34.33.55.56.32.34.52.6.25.29a10,10,0,0,1,.65.89C124,87.42,125.74,91.58,133,95c.62.3,1.28.57,1.94.84l.5.19c7.22,2.77,16.24,3.65,21.26,1.94C161,96.56,172,91.58,172,81.77,172,76.38,171.89,71.11,171.75,66.72Z" style="fill:#cead88"/><path d="M101.71,102.15c-2.34,1.49-6.48,4.21-8.42,7.26a9.75,9.75,0,0,0,.4,10.46c3,4,6.35,6.35,16.22,2.12S141,107.88,146.6,105.06a76.55,76.55,0,0,0,12.59-7.62c10.15-7,6.36-21.73,1.86-25.81-11.44-10.38-20.8-9.61-29.26,1S122.61,87.42,118.38,91,106,99.46,101.71,102.15Z" style="fill:#e4c099"/><path d="M146.6,105.06a76.55,76.55,0,0,0,12.59-7.62c6.32-4.39,7.23-11.73,5.94-17.64-3.15,4-9.54,12.52-12.67,15.23-4,3.45-13.63,10.36-22.73,18C137,109.68,143.76,106.48,146.6,105.06Z" style="fill:#cead88"/></svg>