<svg id="Layer_1" data-name="Layer 1" xmlns="http://www.w3.org/2000/svg" viewBox="0 0 200 200"><title>pawn</title><circle cx="74.98" cy="100.12" r="20.46" style="fill:#ebe8cd"/><path d="M114.46,169.26c-.7-8.47-5.64-15.52-16.23-21.87C92.66,144,87,136.1,87,129h9.17s2.46-4.1,2.82-5.64a24.07,24.07,0,0,0,0-4.23l-8.69-5.83H59.71L51,119.17a23.11,23.11,0,0,0,0,4.23c.36,1.54,2.82,5.64,2.82,5.64H63c0,7.06-5.71,15-11.29,18.35-10.58,6.35-15.52,13.4-16.22,21.87-.62,7.34,4.23,8.46,4.23,8.46h70.5S115.07,176.6,114.46,169.26Z" style="fill:#ebe8cd"/><circle cx="74.98" cy="100.12" r="20.46" style="fill:#ebe8cd"/><path d="M55.86,104.12A23.12,23.12,0,0,1,79,81a23.69,23.69,0,0,1,4.23.39,20.45,20.45,0,0,0-27,27A23.49,23.49,0,0,1,55.86,104.12Z" style="fill:#fafaf5"/><path d="M98.23,147.39C92.66,144,87,136.1,87,129h9.17l.55-.94h0l.83-1.53h.05c.25-.45.48-.92.7-1.37l0-.06h0a9.63,9.63,0,0,0,.7-1.74,24.07,24.07,0,0,0,0-4.23l-8.69-5.83h.32a20.4,20.4,0,0,0-3.65-29.81,20.41,20.41,0,0,1-6.65,29.81s3.24,2.44,3.13,5.88c-.08,2.14-2.13,4.47-3.67,5.92h-28l2.13,3.9h15s13.46,17.18,19,21.14,23.33,9.07,23.35,9.08C108.58,155,104.36,151.06,98.23,147.39Z" style="fill:#c8c5ae"/><polygon points="51.02 119.17 58.67 119.17 59.67 113.34 51.02 119.17" style="fill:#fafaf5"/></svg>