<svg id="Layer_1" data-name="Layer 1" xmlns="http://www.w3.org/2000/svg" viewBox="0 0 80 69"><title>base</title><path d="M30.32,13.32v-.55A5.79,5.79,0,0,1,36.11,7h7.77a5.79,5.79,0,0,1,5.79,5.79v2.66c0,4.34,2.9,21.74,15.48,28.7S75.79,65,75.79,65H4.2S2.26,51.08,14.84,44.13s15.48-24.36,15.48-28.7Z" style="fill:#f8f8f8"/><path d="M30.32,13.32v-.55A5.79,5.79,0,0,1,36.11,7h7.77a5.79,5.79,0,0,1,5.79,5.79v2.66c0,4.34,2.9,21.74,15.48,28.7-28-8.14-28.48-16-35.58-22.87a31.41,31.41,0,0,0,.75-5.83Z" style="fill:#d3d3d3"/></svg>