<svg id="Layer_1" data-name="Layer 1" xmlns="http://www.w3.org/2000/svg" viewBox="0 0 55 25"><title>neck</title><path d="M45.77,19.5H9.24a1.38,1.38,0,0,1-1.3-.92L6.61,14.91a1.39,1.39,0,0,1,.46-1.57l9.75-7.49a1.61,1.61,0,0,1,1-.35h18.4a1.64,1.64,0,0,1,.94.3l10.71,7.55a1.39,1.39,0,0,1,.51,1.6l-1.31,3.63A1.39,1.39,0,0,1,45.77,19.5Z" style="fill:#f8f8f8"/><path d="M36.75,5.5a13.62,13.62,0,0,1,2,7.82c-.16,2.86-4.13,6.18-4.13,6.18H45.77a1.39,1.39,0,0,0,1.31-.92L48.39,15a1.39,1.39,0,0,0-.51-1.6Z" style="fill:#d3d3d3"/></svg>